<svg aria-hidden="true" style="position: absolute; width: 0; height: 0; overflow: hidden;" version="1.1" xmlns="http://www.w3.org/2000/svg" xmlns:xlink="http://www.w3.org/1999/xlink">
<defs>
<symbol id="icon-phone" viewBox="0 0 19 32">
<path d="M1.5 32h16c0.827 0 1.5-0.673 1.5-1.5v-29c0-0.827-0.673-1.5-1.5-1.5h-16c-0.827 0-1.5 0.673-1.5 1.5v29c0 0.827 0.673 1.5 1.5 1.5zM1 1.5c0-0.276 0.224-0.5 0.5-0.5h16c0.276 0 0.5 0.224 0.5 0.5v29c0 0.276-0.224 0.5-0.5 0.5h-16c-0.276 0-0.5-0.224-0.5-0.5v-29zM2.5 27h14c0.276 0 0.5-0.224 0.5-0.5v-21c0-0.276-0.224-0.5-0.5-0.5h-14c-0.276 0-0.5 0.224-0.5 0.5v21c0 0.276 0.224 0.5 0.5 0.5zM3 6h13v20h-13v-20zM9 29c0 0.552 0.448 1 1 1s1-0.448 1-1c0-0.552-0.448-1-1-1s-1 0.448-1 1zM7.5 4h4c0.276 0 0.5-0.224 0.5-0.5s-0.224-0.5-0.5-0.5h-4c-0.276 0-0.5 0.224-0.5 0.5s0.224 0.5 0.5 0.5z"></path>
</symbol>
<symbol id="icon-envelope" viewBox="0 0 38 32">
<path d="M20.060 0.413c-0.58-0.533-1.539-0.533-2.119 0l-17.688 10.671c-0.15 0.091-0.242 0.253-0.242 0.428v18.922c0 0.863 0.706 1.566 1.574 1.566h34.83c0.868 0 1.574-0.703 1.574-1.566v-18.922c0-0.175-0.092-0.337-0.242-0.428l-17.687-10.671zM18.504 1.24c0.035-0.021 0.066-0.046 0.095-0.074 0.108-0.107 0.25-0.166 0.401-0.166s0.293 0.059 0.4 0.166c0.029 0.028 0.061 0.053 0.095 0.074l17.227 10.394-12.478 7.436c-0.237 0.142-0.315 0.448-0.174 0.686 0.094 0.157 0.26 0.244 0.43 0.244 0.087 0 0.175-0.022 0.255-0.070l12.245-7.29v17.757l-16.935-11.266c-0.538-0.429-1.594-0.429-2.096-0.025l-16.969 11.286v-17.752l12.244 7.29c0.080 0.048 0.169 0.070 0.256 0.070 0.17 0 0.336-0.087 0.43-0.244 0.141-0.237 0.063-0.544-0.174-0.686l-12.479-7.436 17.227-10.394zM36.090 31h-34.188l16.656-11.086c0.173-0.138 0.712-0.137 0.919 0.025l16.613 11.061zM6.5 13h25c0.276 0 0.5-0.224 0.5-0.5s-0.224-0.5-0.5-0.5h-25c-0.276 0-0.5 0.224-0.5 0.5s0.224 0.5 0.5 0.5z"></path>
</symbol>
<symbol id="icon-location" viewBox="0 0 32 32">
<path d="M15.997 0c-7.738 0-12.129 6.672-10.492 13.764 1.166 5.050 8.204 18.236 10.492 18.236 2.137 0 9.308-13.19 10.492-18.236 1.647-7.023-2.708-13.764-10.492-13.764zM16 14.619c-2.234 0-4.045-1.811-4.045-4.045s1.811-4.045 4.045-4.045c2.234 0 4.045 1.811 4.045 4.045s-1.811 4.045-4.045 4.045z"></path>
</symbol>
<symbol id="icon-send" viewBox="0 0 32 32">
<path d="M10.648 29.523c0 0.192 0.106 0.368 0.276 0.457s0.375 0.078 0.533-0.030l3.561-2.432-4.37-2.083v4.088z"></path>
<path d="M31.834 2.097c-0.098-0.090-0.224-0.137-0.352-0.137-0.077 0-0.154 0.017-0.226 0.053l-30.745 15.081c-0.314 0.154-0.513 0.475-0.511 0.826s0.204 0.669 0.521 0.82l8.103 3.861 16.202-13.316-14.194 14.273 10.094 4.81c0.124 0.059 0.259 0.089 0.393 0.089 0.114 0 0.227-0.021 0.335-0.063 0.235-0.093 0.422-0.279 0.515-0.514l9.994-25.212c0.079-0.198 0.028-0.425-0.13-0.57z"></path>
</symbol>
<symbol id="icon-telephone" viewBox="0 0 32 32">
<path d="M9.651 22.382c7.526 7.526 15.8 11.456 18.48 8.776l-27.258-27.258c-2.679 2.679 1.25 10.954 8.778 18.481z"></path>
<path d="M12.685 8.951c0.627-0.627 0.627-1.644 0-2.271l-6.209-6.209c-0.627-0.627-1.644-0.627-2.271 0l-2.12 2.12 8.48 8.481 2.12-2.12z"></path>
<path d="M31.498 25.523l-6.209-6.209c-0.301-0.301-0.71-0.471-1.136-0.471s-0.834 0.169-1.136 0.471l-2.12 2.12 8.48 8.48 2.12-2.12c0.627-0.627 0.627-1.644 0-2.271z"></path>
</symbol>
<symbol id="icon-github" viewBox="0 0 32 32">
<path d="M16 0.396c-8.839 0-16 7.167-16 16 0 7.073 4.584 13.068 10.937 15.183 0.803 0.151 1.093-0.344 1.093-0.772 0-0.38-0.009-1.385-0.015-2.719-4.453 0.964-5.391-2.151-5.391-2.151-0.729-1.844-1.781-2.339-1.781-2.339-1.448-0.989 0.115-0.968 0.115-0.968 1.604 0.109 2.448 1.645 2.448 1.645 1.427 2.448 3.744 1.74 4.661 1.328 0.14-1.031 0.557-1.74 1.011-2.135-3.552-0.401-7.287-1.776-7.287-7.907 0-1.751 0.62-3.177 1.645-4.297-0.177-0.401-0.719-2.031 0.141-4.235 0 0 1.339-0.427 4.4 1.641 1.281-0.355 2.641-0.532 4-0.541 1.36 0.009 2.719 0.187 4 0.541 3.043-2.068 4.381-1.641 4.381-1.641 0.859 2.204 0.317 3.833 0.161 4.235 1.015 1.12 1.635 2.547 1.635 4.297 0 6.145-3.74 7.5-7.296 7.891 0.556 0.479 1.077 1.464 1.077 2.959 0 2.14-0.020 3.864-0.020 4.385 0 0.416 0.28 0.916 1.104 0.755 6.4-2.093 10.979-8.093 10.979-15.156 0-8.833-7.161-16-16-16z"></path>
</symbol>
<symbol id="icon-linkedin" viewBox="0 0 32 32">
<path d="M8.268 28h-5.805v-18.694h5.805zM5.362 6.756c-1.856 0-3.362-1.538-3.362-3.394s1.505-3.362 3.362-3.362 3.362 1.505 3.362 3.362c0 1.856-1.506 3.394-3.362 3.394zM29.994 28h-5.792v-9.1c0-2.169-0.044-4.95-3.018-4.95-3.018 0-3.481 2.356-3.481 4.794v9.256h-5.799v-18.694h5.567v2.55h0.081c0.775-1.469 2.668-3.019 5.492-3.019 5.875 0 6.955 3.869 6.955 8.894v10.269z"></path>
</symbol>
<symbol id="icon-adobelightroom" viewBox="0 0 32 32">
<path d="M26.333 0.4h-20.667c-3.133 0-5.667 2.533-5.667 5.667v19.867c0 3.133 2.533 5.667 5.667 5.667h20.667c3.133 0 5.667-2.533 5.667-5.667v-19.867c0-3.133-2.533-5.667-5.667-5.667zM17.013 22.252c0 0.068-0.039 0.12-0.080 0.161-0.036 0.024-0.079 0.039-0.127 0.039-0.003 0-0.006-0-0.008-0h-8.452c-0.147 0-0.213-0.081-0.213-0.24v-13.625c-0.013-0.093 0.053-0.173 0.147-0.187h2.667c0.067-0.013 0.147 0.040 0.147 0.107v11.24h6.16c0.135 0 0.175 0.065 0.147 0.187l-0.387 2.319zM25.347 11.773v2.6c0 0.107-0.067 0.147-0.213 0.147-0.865-0.053-1.733 0.107-2.52 0.453-0.267 0.12-0.52 0.28-0.72 0.493v6.8c0 0.133-0.053 0.187-0.173 0.187h-2.6c-0.107 0.013-0.2-0.053-0.213-0.159v-7.441c0-0.32 0-0.653-0.013-1s-0.013-0.693-0.027-1.040c-0.013-0.293-0.040-0.587-0.081-0.88-0.013-0.067 0.027-0.133 0.093-0.147 0.013-0.013 0.027-0.013 0.053 0h2.333c0.133 0 0.24 0.093 0.28 0.213 0.053 0.093 0.093 0.2 0.107 0.307 0.027 0.133 0.052 0.28 0.067 0.413 0.013 0.147 0.028 0.307 0.028 0.48 0.399-0.467 0.88-0.853 1.425-1.147 0.613-0.333 1.293-0.493 1.987-0.48 0.092-0.013 0.173 0.053 0.187 0.147l0.001 0.053z"></path>
</symbol>
<symbol id="icon-adobephotoshop" viewBox="0 0 32 32">
<path d="M13.133 11.227c-0.493-0.2-1.027-0.28-1.573-0.267-0.347 0-0.653 0-0.907 0.013-0.267-0.013-0.453 0-0.547 0.013v4.48c0.187 0.013 0.36 0.027 0.52 0.027h0.707c0.52 0 1.040-0.080 1.533-0.24 0.427-0.12 0.8-0.373 1.093-0.707 0.28-0.333 0.413-0.787 0.413-1.373 0.013-0.413-0.093-0.827-0.307-1.187-0.223-0.343-0.543-0.607-0.92-0.755l-0.013-0.005zM26.333 0.4h-20.667c-3.133 0-5.667 2.533-5.667 5.667v19.865c0 3.133 2.533 5.667 5.667 5.667h20.667c3.133 0 5.667-2.533 5.667-5.667v-19.865c0-3.133-2.533-5.667-5.667-5.667zM16.479 15.933c-0.532 0.747-1.279 1.307-2.145 1.627-0.907 0.333-1.907 0.453-3 0.453-0.32 0-0.533 0-0.667-0.013s-0.32-0.013-0.573-0.013v4.279c0.013 0.093-0.053 0.175-0.147 0.188h-2.587c-0.107 0-0.16-0.055-0.16-0.175v-13.719c0-0.093 0.040-0.147 0.133-0.147 0.227 0 0.44 0 0.747-0.013 0.32-0.013 0.653-0.013 1.013-0.027s0.747-0.013 1.16-0.027c0.413-0.013 0.813-0.013 1.213-0.013 1.093 0 2 0.133 2.747 0.413 0.667 0.227 1.28 0.6 1.787 1.093 0.427 0.427 0.76 0.947 0.973 1.52 0.199 0.56 0.305 1.133 0.305 1.733 0.001 1.147-0.265 2.093-0.8 2.84zM25.933 21.12c-0.373 0.533-0.895 0.945-1.493 1.188-0.653 0.279-1.453 0.424-2.415 0.424-0.612 0-1.213-0.052-1.812-0.172-0.467-0.081-0.933-0.227-1.36-0.427-0.093-0.052-0.161-0.145-0.148-0.252v-2.32c0-0.039 0.015-0.093 0.055-0.12 0.039-0.027 0.080-0.013 0.12 0.013 0.52 0.307 1.067 0.521 1.653 0.653 0.505 0.133 1.039 0.2 1.573 0.2 0.507 0 0.867-0.068 1.107-0.188 0.213-0.093 0.36-0.32 0.36-0.56 0-0.188-0.107-0.36-0.32-0.533-0.213-0.172-0.652-0.372-1.305-0.628-0.68-0.24-1.305-0.56-1.893-0.959-0.416-0.3-0.757-0.679-1.006-1.116l-0.009-0.017c-0.193-0.376-0.306-0.821-0.306-1.292 0-0.025 0-0.049 0.001-0.073l-0 0.004c0-0.573 0.16-1.12 0.455-1.613 0.333-0.533 0.825-0.96 1.399-1.227 0.625-0.319 1.412-0.465 2.359-0.465 0.547 0 1.107 0.040 1.653 0.12 0.4 0.053 0.787 0.16 1.147 0.307 0.052 0.013 0.107 0.067 0.133 0.12 0.013 0.053 0.027 0.107 0.027 0.16v2.173c0 0.053-0.027 0.107-0.067 0.133-0.12 0.027-0.187 0.027-0.24 0-0.4-0.213-0.827-0.36-1.28-0.453-0.493-0.107-0.987-0.173-1.493-0.173-0.267-0.013-0.547 0.027-0.801 0.093-0.172 0.040-0.32 0.133-0.413 0.267-0.067 0.107-0.107 0.24-0.107 0.36s0.053 0.24 0.135 0.347c0.12 0.147 0.279 0.267 0.453 0.36 0.305 0.16 0.627 0.307 0.945 0.44 0.721 0.24 1.415 0.573 2.055 0.973 0.44 0.279 0.8 0.653 1.052 1.107 0.213 0.424 0.32 0.893 0.307 1.372 0.015 0.628-0.172 1.253-0.519 1.775z"></path>
</symbol>
<symbol id="icon-angular" viewBox="0 0 32 32">
<path d="M13.241 16.86h5.517l-2.76-6.544zM15.999 0l-15.092 5.309 2.301 19.695 12.792 6.996 12.795-6.989 2.299-19.699-15.095-5.311zM25.417 24.413h-3.517l-1.896-4.671h-8.009l-1.896 4.672h-3.52l9.421-20.881z"></path>
</symbol>
<symbol id="icon-css3" viewBox="0 0 32 32">
<path d="M2 0h28l-2.547 28.751-11.484 3.249-11.42-3.251-2.549-28.749zM24.787 5.884l-17.573-0.004 0.284 3.496 13.5 0.003-0.34 3.621h-8.853l0.32 3.431h8.243l-0.488 4.697-3.88 1.072-3.941-1.080-0.251-2.813h-3.48l0.387 5.14 7.287 2.271 7.164-2.040 1.623-17.792z"></path>
</symbol>
<symbol id="icon-font-awesome" viewBox="0 0 32 32">
<path d="M5 5v22h22v-22h-22zM7 7h18v18h-18v-18zM12.5 9c-0.828 0.001-1.498 0.672-1.498 1.5v0c0 0-0.002 0-0.002 0v11.5c0 0.552 0.448 1 1 1s1-0.448 1-1v-4.256c0.782-0.288 1.645-0.51 2.479-0.51 1.579 0 2.191 0.816 3.506 0.816 0.939 0 1.814-0.318 2.631-0.67 0.205-0.088 0.381-0.176 0.381-0.381h0.006v-5.619c0-0.205-0.206-0.381-0.441-0.381-0.294 0-1.521 0.787-2.631 0.787-0.23 0-0.436-0.029-0.641-0.117-0.993-0.377-1.869-0.67-2.979-0.67-0.49 0-0.991 0.077-1.482 0.195 0.108-0.202 0.171-0.441 0.171-0.695 0-0.828-0.671-1.499-1.499-1.5h-0z"></path>
</symbol>
<symbol id="icon-git" viewBox="0 0 32 32">
<path d="M31.395 14.573l-13.972-13.971c-0.374-0.372-0.889-0.603-1.459-0.603s-1.085 0.23-1.459 0.603l0-0-2.895 2.9 3.68 3.68c0.235-0.082 0.505-0.13 0.786-0.13 1.353 0 2.451 1.097 2.451 2.451 0 0.287-0.049 0.562-0.14 0.817l0.005-0.017 3.544 3.547c0.24-0.086 0.517-0.136 0.805-0.136 1.353 0 2.451 1.097 2.451 2.451 0 0.679-0.276 1.293-0.722 1.737l-0 0c-0.443 0.444-1.056 0.719-1.733 0.719s-1.29-0.275-1.733-0.719l-0-0c-0.444-0.445-0.718-1.059-0.718-1.738 0-0.333 0.066-0.65 0.186-0.94l-0.006 0.016-3.319-3.301v8.7c0.235 0.115 0.456 0.271 0.651 0.464 0.441 0.445 0.713 1.057 0.713 1.733s-0.272 1.288-0.713 1.734l0-0c-0.445 0.445-1.060 0.721-1.739 0.721s-1.294-0.276-1.739-0.721l-0-0c-0.444-0.443-0.719-1.055-0.719-1.732s0.275-1.289 0.719-1.732l0-0c0.243-0.24 0.516-0.421 0.807-0.541v-8.785c-0.899-0.375-1.52-1.247-1.52-2.264 0-0.343 0.071-0.669 0.198-0.966l-0.006 0.016-3.616-3.633-9.581 9.575c-0.8 0.807-0.8 2.112 0 2.919l13.973 13.969c0.373 0.373 0.888 0.604 1.457 0.604s1.084-0.231 1.457-0.604v0l13.907-13.907c0.374-0.373 0.605-0.888 0.605-1.458s-0.231-1.085-0.605-1.458l-0-0z"></path>
</symbol>
<symbol id="icon-html5" viewBox="0 0 32 32">
<path d="M2 0h28l-2.547 28.751-11.484 3.249-11.419-3.251-2.551-28.749zM11.375 13l-0.309-3.624 13.412 0.004 0.307-3.496-17.568-0.004 0.931 10.68h12.168l-0.435 4.568-3.88 1.072-3.94-1.080-0.251-2.813h-3.479l0.44 5.561 7.229 1.933 7.172-1.924 0.992-10.876h-12.789z"></path>
</symbol>
<symbol id="icon-javascript" viewBox="0 0 32 32">
<path d="M0 0h32v32h-32v-32zM29.379 24.368c-0.233-1.46-1.184-2.687-4.004-3.831-0.981-0.46-2.072-0.78-2.396-1.52-0.121-0.44-0.14-0.68-0.061-0.94 0.2-0.861 1.22-1.12 2.020-0.88 0.52 0.16 1 0.56 1.301 1.2 1.379-0.901 1.379-0.901 2.34-1.5-0.36-0.56-0.539-0.801-0.781-1.040-0.84-0.94-1.959-1.42-3.779-1.379l-0.94 0.119c-0.901 0.22-1.76 0.7-2.28 1.34-1.52 1.721-1.081 4.721 0.759 5.961 1.82 1.36 4.481 1.659 4.821 2.94 0.32 1.56-1.16 2.060-2.621 1.88-1.081-0.24-1.68-0.781-2.34-1.781l-2.44 1.401c0.28 0.64 0.6 0.919 1.080 1.479 2.32 2.341 8.12 2.221 9.161-1.339 0.039-0.12 0.32-0.94 0.099-2.2l0.061 0.089zM17.401 14.708h-2.997c0 2.584-0.012 5.152-0.012 7.74 0 1.643 0.084 3.151-0.184 3.615-0.44 0.919-1.573 0.801-2.088 0.64-0.528-0.261-0.796-0.621-1.107-1.14-0.084-0.14-0.147-0.261-0.169-0.261l-2.433 1.5c0.407 0.84 1 1.563 1.765 2.023 1.14 0.68 2.672 0.9 4.276 0.54 1.044-0.301 1.944-0.921 2.415-1.881 0.68-1.24 0.536-2.76 0.529-4.461 0.016-2.739 0-5.479 0-8.239l0.005-0.075z"></path>
</symbol>
<symbol id="icon-less" viewBox="0 0 32 32">
<path d="M4.797 9.533c-0.006 0-0.013-0-0.021-0-0.488 0-0.969 0.033-1.439 0.097l0.055-0.006c-0.375 0.055-0.693 0.165-0.956 0.332-0.259 0.16-0.464 0.386-0.596 0.653l-0.004 0.009c-0.131 0.277-0.187 0.627-0.187 1.069v2.045c0 0.571-0.112 0.976-0.337 1.179-0.225 0.221-0.656 0.333-1.312 0.333v1.547c0.637 0 1.087 0.111 1.312 0.332s0.337 0.627 0.337 1.216v2.064c0 0.792 0.244 1.345 0.731 1.64 0.507 0.276 1.312 0.424 2.417 0.424v-1.437c-0.524 0-0.861-0.093-1.031-0.259-0.168-0.165-0.244-0.497-0.244-0.995v-1.953c0-0.497-0.131-0.884-0.373-1.16-0.245-0.277-0.639-0.499-1.181-0.645 0.524-0.167 0.917-0.387 1.161-0.683 0.244-0.293 0.375-0.681 0.375-1.16v-1.953c0-0.48 0.076-0.811 0.244-0.977 0.163-0.16 0.549-0.26 1.049-0.267v6.063c0 0.555 0.040 1.019 0.12 1.392 0.079 0.373 0.219 0.693 0.419 0.965 0.2 0.271 0.475 0.467 0.821 0.591s0.785 0.187 1.312 0.187c0.131 0 0.273-0.009 0.427-0.027 0.331-0.034 0.627-0.084 0.915-0.152l-0.048 0.010-0.048-1.307c-0.36 0.051-0.656 0.076-0.889 0.076-0.471 0-0.787-0.123-0.951-0.368-0.163-0.244-0.244-0.712-0.244-1.401v-7.475h-1.833zM27.221 9.532v1.456c0.524 0 0.863 0.092 1.031 0.257 0.169 0.167 0.244 0.497 0.244 0.977v1.953c0 0.479 0.131 0.867 0.373 1.16 0.245 0.296 0.639 0.516 1.163 0.683-0.543 0.147-0.936 0.368-1.18 0.644-0.244 0.277-0.375 0.664-0.375 1.161v1.953c0 0.497-0.076 0.829-0.244 0.995-0.168 0.167-0.507 0.259-1.031 0.259v1.437c1.107 0 1.912-0.147 2.417-0.424 0.487-0.295 0.731-0.848 0.731-1.64v-2.064c0-0.589 0.113-0.995 0.337-1.216 0.225-0.221 0.675-0.332 1.312-0.332v-1.547c-0.656 0-1.087-0.112-1.312-0.333-0.224-0.201-0.337-0.608-0.337-1.179v-2.045c0-0.443-0.056-0.792-0.187-1.068-0.136-0.278-0.341-0.503-0.593-0.66l-0.007-0.004c-0.274-0.168-0.598-0.286-0.944-0.331l-0.012-0.001c-0.4-0.059-0.862-0.092-1.332-0.092-0.019 0-0.039 0-0.058 0h0.003zM18.583 12.165c-0.9 0-1.612 0.187-2.117 0.561-0.507 0.375-0.768 0.919-0.768 1.612 0 0.563 0.149 1.031 0.468 1.368s0.824 0.637 1.536 0.917c0.057 0.020 0.187 0.076 0.395 0.151 0.6 0.244 1.011 0.413 1.217 0.581 0.194 0.145 0.319 0.375 0.319 0.634 0 0.001 0 0.003 0 0.004v-0c0 0.299-0.112 0.524-0.337 0.675-0.225 0.149-0.544 0.224-0.956 0.224-0.393 0-0.843-0.075-1.312-0.207-0.448-0.112-0.841-0.266-1.208-0.463l0.028 0.014-0.187 1.387c0.673 0.395 1.573 0.581 2.716 0.581 0.956 0 1.687-0.207 2.212-0.619 0.524-0.412 0.787-1.012 0.787-1.78 0-0.581-0.168-1.049-0.507-1.405-0.336-0.356-0.843-0.656-1.555-0.919-0.509-0.2-1.12-0.369-1.612-0.675-0.181-0.111-0.299-0.307-0.299-0.531 0-0.011 0-0.021 0.001-0.032l-0 0.002c0-0.244 0.112-0.432 0.319-0.563 0.205-0.131 0.487-0.187 0.861-0.187 0.675 0 1.368 0.168 2.099 0.505l0.487-1.275c-0.749-0.373-1.611-0.561-2.585-0.561zM24.599 12.165c-0.9 0-1.613 0.187-2.119 0.561-0.507 0.375-0.768 0.919-0.768 1.612 0 0.563 0.149 1.031 0.468 1.368 0.32 0.337 0.825 0.637 1.537 0.917 0.056 0.020 0.187 0.076 0.393 0.151 0.6 0.244 1.012 0.413 1.219 0.581 0.194 0.145 0.317 0.375 0.317 0.633 0 0.002 0 0.003 0 0.005v-0c0 0.299-0.112 0.524-0.337 0.675-0.224 0.149-0.543 0.224-0.955 0.224-0.471-0.011-0.921-0.085-1.347-0.216l0.035 0.009c-0.449-0.112-0.842-0.266-1.209-0.463l0.028 0.014-0.187 1.387c0.675 0.395 1.573 0.581 2.717 0.581 0.936 0 1.687-0.207 2.248-0.619 0.525-0.412 0.787-1.012 0.787-1.78 0-0.581-0.168-1.049-0.505-1.405s-0.843-0.656-1.555-0.919c-0.523-0.204-1.123-0.369-1.612-0.675-0.181-0.11-0.301-0.307-0.301-0.531 0-0.011 0-0.021 0.001-0.031l-0 0.001c0-0.244 0.113-0.432 0.32-0.563 0.205-0.131 0.485-0.187 0.861-0.187 0.675 0 1.368 0.168 2.099 0.505l0.449-1.275c-0.749-0.373-1.612-0.561-2.587-0.561zM11.985 12.184c-1.123 0-2.004 0.356-2.66 1.087s-0.973 1.705-0.973 2.923c0 1.275 0.336 2.249 1.029 2.96 0.693 0.713 1.649 1.069 2.887 1.069 1.067 0 1.987-0.244 2.773-0.693l-0.263-1.312c-0.693 0.408-1.526 0.651-2.416 0.656h-0.001c-0.656 0-1.181-0.207-1.556-0.6-0.373-0.393-0.58-0.955-0.6-1.667h5.136v-0.788c0-1.105-0.3-1.987-0.881-2.643-0.6-0.655-1.405-0.992-2.473-0.992zM11.968 13.495c0.507 0 0.899 0.169 1.18 0.507s0.431 0.824 0.431 1.443h-3.352c0.056-0.656 0.243-1.143 0.543-1.461 0.337-0.319 0.731-0.488 1.2-0.488z"></path>
</symbol>
<symbol id="icon-npm" viewBox="0 0 32 32">
<path d="M0 9.781v10.667h8.885v1.771h7.115v-1.771h16v-10.667zM8.885 18.661h-1.771v-5.333h-1.781v5.333h-3.552v-7.104h7.104zM14.219 18.661v1.787h-3.552v-8.891h7.115v7.109h-3.563zM30.224 18.661h-1.776v-5.333h-1.781v5.333h-1.781v-5.333h-1.771v5.333h-3.563v-7.104h10.672zM14.219 13.333h1.781v3.557h-1.781z"></path>
</symbol>
<symbol id="icon-react" viewBox="0 0 32 32">
<path d="M18.847 15.969c0 1.577-1.279 2.856-2.856 2.856s-2.856-1.279-2.856-2.856 1.279-2.856 2.856-2.856 2.856 1.279 2.856 2.856z"></path>
<path d="M15.989 22.511c-0.238 0.006-0.519 0.009-0.801 0.009-3.332 0-6.545-0.504-9.568-1.439l0.229 0.060c-1.601-0.517-2.989-1.279-4.197-2.255l0.025 0.019c-0.935-0.677-1.564-1.724-1.671-2.924l-0.001-0.015c0-1.889 2.071-3.738 5.548-4.945 2.977-0.98 6.404-1.545 9.961-1.545 0.165 0 0.329 0.001 0.494 0.004h-0.025c0.137-0.002 0.299-0.004 0.461-0.004 3.514 0 6.898 0.556 10.069 1.585l-0.231-0.065c1.547 0.503 2.889 1.228 4.069 2.15l-0.028-0.021c0.919 0.647 1.538 1.664 1.643 2.829l0.001 0.015c0 1.963-2.316 3.949-6.048 5.184-2.801 0.864-6.021 1.362-9.357 1.362-0.201 0-0.402-0.002-0.602-0.006h0.030zM15.989 10.849c-0.126-0.002-0.275-0.002-0.424-0.002-3.415 0-6.703 0.536-9.788 1.528l0.226-0.063c-3.198 1.115-4.632 2.641-4.632 3.659 0 1.058 1.542 2.726 4.922 3.88 2.665 0.826 5.729 1.303 8.904 1.303 0.279 0 0.556-0.004 0.832-0.011l-0.040 0.001c0.173 0.004 0.377 0.006 0.581 0.006 3.181 0 6.251-0.474 9.144-1.355l-0.222 0.058c3.508-1.166 5.12-2.834 5.12-3.887-0.121-0.756-0.548-1.394-1.145-1.796l-0.009-0.006c-1.026-0.799-2.223-1.442-3.52-1.865l-0.083-0.024c-2.807-0.908-6.036-1.432-9.387-1.432-0.168 0-0.335 0.001-0.503 0.004h0.025z"></path>
<path d="M9.509 30.206c-0.019 0-0.041 0.001-0.063 0.001-0.537 0-1.041-0.141-1.476-0.388l0.015 0.008c-1.633-0.948-2.202-3.665-1.517-7.278 0.826-3.707 2.165-6.985 3.963-9.956l-0.082 0.147c1.777-3.147 3.923-5.838 6.43-8.145l0.024-0.021c1.094-1 2.374-1.822 3.777-2.404l0.087-0.032c0.482-0.232 1.049-0.367 1.647-0.367 0.594 0 1.157 0.134 1.659 0.372l-0.024-0.009c1.701 0.979 2.265 3.982 1.467 7.829-0.853 3.516-2.155 6.613-3.866 9.433l0.083-0.146c-1.721 3.117-3.803 5.786-6.241 8.082l-0.017 0.015c-1.135 1.039-2.469 1.884-3.936 2.468l-0.088 0.031c-0.545 0.215-1.176 0.346-1.836 0.361h-0.007zM10.937 13.083l0.591 0.341c-1.637 2.702-2.921 5.838-3.681 9.173l-0.040 0.213c-0.632 3.329-0.023 5.331 0.853 5.838 0.226 0.121 0.494 0.191 0.779 0.191 0.024 0 0.049 0 0.072-0.001h-0.004c1.132 0 2.913-0.717 4.973-2.515 2.342-2.213 4.331-4.768 5.893-7.59l0.081-0.16c1.562-2.555 2.81-5.515 3.585-8.66l0.045-0.216c0.745-3.624 0.102-5.843-0.813-6.374-0.282-0.111-0.609-0.175-0.951-0.175-0.431 0-0.839 0.103-1.199 0.284l0.015-0.007c-1.325 0.551-2.463 1.287-3.445 2.188l0.008-0.007c-2.419 2.229-4.471 4.808-6.087 7.666l-0.082 0.156z"></path>
<path d="M22.471 30.222c-1.548 0-3.508-0.933-5.559-2.697-2.578-2.35-4.761-5.075-6.476-8.1l-0.085-0.162c-1.695-2.784-3.023-6.015-3.81-9.452l-0.043-0.219c-0.192-0.84-0.302-1.804-0.302-2.793 0-0.625 0.044-1.237 0.128-1.838l-0.008 0.069c0.101-1.183 0.721-2.202 1.626-2.843l0.012-0.008c1.695-0.984 4.581 0.028 7.516 2.641 2.396 2.268 4.442 4.875 6.066 7.751l0.085 0.164c1.692 2.722 3.031 5.88 3.842 9.242l0.045 0.22c0.193 0.84 0.305 1.806 0.305 2.797 0 0.684-0.052 1.355-0.154 2.010l0.009-0.073c-0.122 1.211-0.763 2.253-1.694 2.911l-0.013 0.008c-0.412 0.236-0.905 0.375-1.431 0.375-0.021 0-0.043 0-0.064-0.001h0.004zM11.534 18.58c1.728 3.047 3.813 5.655 6.247 7.889l0.024 0.021c2.567 2.208 4.603 2.686 5.485 2.174 0.916-0.529 1.587-2.697 0.894-6.202-0.832-3.425-2.118-6.44-3.815-9.175l0.077 0.133c-1.634-2.911-3.588-5.407-5.864-7.566l-0.014-0.013c-2.766-2.458-5.007-3.010-5.924-2.482-0.561 0.456-0.929 1.128-0.978 1.888v0.008c-0.065 0.462-0.102 0.996-0.102 1.538 0 0.897 0.102 1.769 0.294 2.609l-0.015-0.078c0.798 3.499 2.071 6.588 3.771 9.391l-0.078-0.139z"></path>
</symbol>
<symbol id="icon-sass" viewBox="0 0 32 32">
<path d="M27.533 17.796c0.039-0.001 0.085-0.002 0.132-0.002 0.834 0 1.623 0.194 2.323 0.54l-0.031-0.014c0.638 0.311 1.162 0.771 1.541 1.335l0.009 0.014c0.299 0.436 0.477 0.975 0.477 1.555 0 0.042-0.001 0.084-0.003 0.125v-0.006c-0.031 0.579-0.294 1.090-0.698 1.448l-0.002 0.002c-0.221 0.217-0.488 0.387-0.785 0.495l-0.015 0.005q-0.25 0.050-0.275-0.075t0.225-0.275c0.452-0.274 0.779-0.716 0.898-1.237l0.003-0.013c0.003-0.042 0.005-0.091 0.005-0.141 0-0.311-0.074-0.605-0.205-0.865l0.005 0.011c-0.217-0.453-0.541-0.825-0.94-1.094l-0.010-0.006c-0.597-0.384-1.313-0.636-2.083-0.699l-0.016-0.001c-0.262-0.039-0.564-0.061-0.872-0.061-0.801 0-1.566 0.151-2.27 0.426l0.042-0.015c0.145 0.339 0.236 0.732 0.249 1.144v0.005c-0.016 0.845-0.47 1.58-1.145 1.99l-0.011 0.006c-0.31 0.22-0.664 0.413-1.041 0.563l-0.035 0.012c-0.229 0.112-0.498 0.177-0.782 0.177-0.033 0-0.065-0.001-0.097-0.003h0.005q-0.949-0.199-0.45-1.65c0.145-0.421 0.348-0.786 0.605-1.107l-0.006 0.007c0.329-0.43 0.69-0.807 1.089-1.141l0.011-0.009-0.098-0.146c-0.183-0.312-0.351-0.675-0.486-1.054l-0.014-0.046q-0.15-0.5-0.25-0.949l-0.050-0.35-0.5 0.949q-0.65 1.2-1.25 2.099l-0.15 0.25c0.168 0.408 0.292 0.881 0.348 1.375l0.002 0.025c0.004 0.047 0.006 0.103 0.006 0.159 0 0.758-0.374 1.428-0.948 1.837l-0.007 0.005c-0.274 0.169-0.601 0.344-0.94 0.5l-0.060 0.025c-0.353 0.153-0.762 0.253-1.191 0.275h-0.009c-0.033 0.002-0.072 0.004-0.111 0.004-0.25 0-0.487-0.057-0.699-0.158l0.010 0.004c-0.127-0.109-0.207-0.269-0.207-0.448 0-0.091 0.021-0.178 0.058-0.255l-0.002 0.004c0.4-0.561 0.794-1.049 1.213-1.515l-0.013 0.015 1.1-1.399-0.199-0.45c-0.16-0.294-0.313-0.641-0.436-1.001l-0.014-0.048q-0.15-0.5-0.25-0.949l-0.050-0.35-0.5 1.2q-0.599 1.399-1.1 2.399-0.747 1.5-1.25 2.3l-0.1 0.15q-0.599 0.949-1.15 0.949t-0.747-0.7c-0.096-0.344-0.152-0.739-0.152-1.147 0-0.036 0-0.072 0.001-0.108v0.005l0.1-0.7v0.050q-0.4 0.949-0.8 1.749c-0.177 0.346-0.359 0.641-0.563 0.919l0.013-0.019c-0.206 0.216-0.496 0.35-0.817 0.35-0.003 0-0.005 0-0.008 0-0.021 0.002-0.045 0.002-0.069 0.002-0.253 0-0.483-0.096-0.657-0.253l0.001 0.001c-0.349-0.358-0.608-0.805-0.742-1.304l-0.005-0.021c-0.164-0.455-0.258-0.981-0.258-1.529 0-0.071 0.002-0.141 0.005-0.21v0.010c0.079-0.796 0.238-1.525 0.471-2.22l-0.021 0.071-1.799 1.050v0.050c0.261 0.542 0.414 1.178 0.414 1.85 0 0.123-0.005 0.245-0.015 0.365l0.001-0.016c-0.053 1.030-0.382 1.973-0.913 2.77l0.013-0.020c-0.557 0.884-1.36 1.567-2.314 1.962l-0.033 0.012c-0.537 0.241-1.165 0.382-1.825 0.382-0.418 0-0.824-0.056-1.208-0.162l0.032 0.007c-0.318-0.107-0.578-0.319-0.743-0.593l-0.003-0.006c-0.233-0.338-0.38-0.751-0.403-1.196v-0.006c-0.011-0.101-0.017-0.218-0.017-0.337 0-0.513 0.117-0.999 0.326-1.432l-0.009 0.020c0.574-0.979 1.368-1.772 2.316-2.33l0.030-0.016c0.671-0.465 1.442-0.916 2.247-1.309l0.106-0.047 0.25-0.15q-0.45-0.35-1.65-1.2c-1.069-0.716-1.998-1.439-2.874-2.221l0.025 0.022c-0.847-0.729-1.464-1.703-1.741-2.812l-0.008-0.038c-0.026-0.154-0.041-0.331-0.041-0.511 0-0.564 0.145-1.094 0.399-1.555l-0.008 0.017c0.56-1.204 1.336-2.219 2.288-3.035l0.012-0.010c1.030-0.973 2.196-1.82 3.462-2.506l0.087-0.043c1.131-0.653 2.452-1.26 3.829-1.747l0.17-0.052c1.279-0.468 2.756-0.742 4.296-0.747h0.002c0.070-0.002 0.153-0.004 0.236-0.004 1.241 0 2.415 0.287 3.459 0.798l-0.046-0.021c0.9 0.41 1.574 1.182 1.844 2.126l0.006 0.024c0.083 0.322 0.13 0.692 0.13 1.073 0 0.632-0.131 1.234-0.366 1.78l0.011-0.029c-0.428 1.037-1.037 1.92-1.797 2.647l-0.003 0.003c-0.77 0.763-1.693 1.373-2.718 1.78l-0.055 0.019c-1.074 0.461-2.321 0.751-3.63 0.799l-0.019 0.001c-0.192 0.022-0.414 0.034-0.639 0.034-0.592 0-1.163-0.085-1.703-0.244l0.043 0.011c-0.483-0.154-0.9-0.393-1.254-0.703l0.004 0.003c-0.248-0.202-0.45-0.451-0.594-0.734l-0.006-0.013q-0.15-0.4-0.025-0.475t0.175-0.025l0.25 0.25c0.279 0.259 0.612 0.463 0.98 0.593l0.020 0.006c0.506 0.176 1.090 0.278 1.697 0.278 0.195 0 0.387-0.010 0.576-0.031l-0.023 0.002c1.618-0.191 3.077-0.743 4.336-1.573l-0.037 0.023c1.064-0.633 1.925-1.503 2.531-2.54l0.018-0.034c0.301-0.442 0.481-0.988 0.481-1.576 0-0.361-0.068-0.707-0.192-1.025l0.007 0.019c-0.374-0.591-0.979-1.007-1.685-1.122l-0.014-0.002c-0.548-0.135-1.178-0.213-1.825-0.213-0.521 0-1.031 0.050-1.524 0.146l0.050-0.008c-1.687 0.304-3.195 0.825-4.586 1.541l0.091-0.043q-6.148 3.1-6.349 6.349v0.049c0 0.873 0.343 1.666 0.902 2.252l-0.001-0.001c0.637 0.708 1.341 1.333 2.11 1.873l0.039 0.026c0.701 0.524 1.321 1.065 1.898 1.649l0.001 0.002 0.1 0.1 3.2-1.749c0.365-0.528 0.804-0.974 1.308-1.334l0.016-0.011c0.4-0.336 0.908-0.555 1.465-0.599l0.009-0.001c0.020-0.002 0.043-0.002 0.067-0.002 0.373 0 0.693 0.225 0.831 0.547l0.002 0.006c0.105 0.235 0.166 0.51 0.166 0.799 0 0.088-0.006 0.175-0.017 0.261l0.001-0.010-0.097 0.493 0.15-0.1c0.104-0.079 0.235-0.126 0.377-0.126 0.090 0 0.175 0.019 0.252 0.053l-0.004-0.002c0.192 0.050 0.331 0.222 0.331 0.426 0 0.035-0.004 0.069-0.012 0.102l0.001-0.003-0.15 0.55q-0.45 1.799-0.599 2.599c-0.050 0.173-0.078 0.372-0.078 0.578 0 0.043 0.001 0.085 0.004 0.127v-0.006q0.025 0.3 0.075 0.3t0.199-0.3l0.15-0.35q0.050 0 0 0.050l0.55-1.15q1.95-4.298 2.099-4.8l0.3-0.949q0.050-0.1 0.4-0.199c0.237-0.064 0.508-0.101 0.788-0.101 0.023 0 0.046 0 0.068 0.001h-0.003q0.7 0 0.7 0.35l-0.050 0.25c-0.112 0.308-0.223 0.693-0.309 1.087l-0.011 0.063c-0.020 0.129-0.032 0.277-0.032 0.429 0 0.202 0.020 0.399 0.059 0.59l-0.003-0.019 0.050 0.199c0.102 0.417 0.257 0.783 0.46 1.117l-0.010-0.017q0.599-0.999 1.15-2.049c0.29-0.483 0.56-1.043 0.777-1.629l0.023-0.070c0.075-0.377 0.161-0.695 0.266-1.005l-0.016 0.056q0.050-0.15 0.427-0.225c0.238-0.048 0.511-0.075 0.79-0.075h0.034q0.7 0 0.747 0.35l-0.1 0.199c-0.119 0.336-0.223 0.74-0.293 1.155l-0.006 0.045c-0.009 0.097-0.015 0.209-0.015 0.323 0 0.239 0.024 0.473 0.069 0.699l-0.004-0.023v0.199c0.115 0.436 0.286 0.819 0.51 1.166l-0.010-0.016 0.15 0.35c0.835-0.41 1.817-0.65 2.855-0.65h0.037zM6.094 25.049c0.695-0.718 1.124-1.698 1.124-2.778 0-0.417-0.064-0.819-0.182-1.197l0.008 0.028-0.8 0.5c-0.816 0.465-1.522 0.984-2.161 1.574l0.008-0.007c-0.485 0.446-0.843 1.023-1.019 1.674l-0.006 0.025q-0.225 0.925 0.225 1.2c0.183 0.084 0.398 0.133 0.623 0.133 0.246 0 0.479-0.058 0.684-0.162l-0.009 0.004c0.594-0.216 1.097-0.559 1.497-0.998l0.003-0.003zM12.791 20.445q0.25-0.65 0.55-1.55 0.4-1.2 0.275-1.399t-0.475-0.050c-0.278 0.135-0.511 0.32-0.697 0.547l-0.003 0.004c-0.208 0.263-0.406 0.557-0.582 0.866l-0.018 0.034c-0.202 0.331-0.373 0.712-0.492 1.116l-0.009 0.034c-0.193 0.523-0.305 1.128-0.305 1.758 0 0.085 0.002 0.169 0.006 0.253v-0.012q0.050 0.999 0.32 1.075t0.625-0.725c0.229-0.413 0.433-0.893 0.585-1.396l0.014-0.054q0.149-0.354 0.204-0.501zM18.337 23.095c0.693-0.311 1.181-0.966 1.249-1.741l0.001-0.008v-0.050l-0.55 0.7-0.999 1.1c-0.015 0.012-0.025 0.030-0.025 0.050s0.010 0.038 0.024 0.050q0.048 0.049 0.3-0.1zM22.636 22.145c0.756-0.216 1.3-0.901 1.3-1.712 0-0.013 0-0.026 0-0.039v0.002c-0.010-0.2-0.046-0.388-0.105-0.566l0.004 0.015c-0.389 0.346-0.708 0.76-0.939 1.227l-0.011 0.023q-0.451 0.899-0.252 1.048z"></path>
</symbol>
<symbol id="icon-bicycle" viewBox="0 0 32 32">
<path d="M21.333 2.133c-1.178 0-2.133 0.955-2.133 2.133s0.955 2.133 2.133 2.133 2.133-0.955 2.133-2.133c0-1.178-0.955-2.133-2.133-2.133zM17.375 6.387c-0.277 0.001-0.543 0.11-0.742 0.304l-5.633 5.333c-0.481 0.454-0.438 1.232 0.092 1.629l3.842 2.879v5.867c-0.021 1.443 2.154 1.443 2.133 0v-6.4c0.001-0.336-0.157-0.652-0.425-0.854l-1.638-1.229 3.878-3.672 1.597 2.13c0.202 0.268 0.518 0.426 0.854 0.425h3.2c1.442 0.021 1.442-2.154 0-2.133h-2.667l-2.879-3.842c-0.192-0.264-0.495-0.425-0.821-0.438h-0.792zM6.4 14.933c-3.535 0-6.4 2.865-6.4 6.4s2.865 6.4 6.4 6.4 6.4-2.866 6.4-6.4-2.865-6.4-6.4-6.4zM25.6 14.933c-3.535 0-6.4 2.865-6.4 6.4s2.865 6.4 6.4 6.4 6.4-2.866 6.4-6.4-2.865-6.4-6.4-6.4zM6.4 17.067c2.356 0 4.267 1.91 4.267 4.267s-1.91 4.267-4.267 4.267-4.267-1.91-4.267-4.267 1.91-4.267 4.267-4.267zM25.6 17.067c2.356 0 4.267 1.91 4.267 4.267s-1.91 4.267-4.267 4.267-4.267-1.91-4.267-4.267 1.91-4.267 4.267-4.267z"></path>
</symbol>
<symbol id="icon-boxing" viewBox="0 0 32 32">
<path d="M29.025 5.1l-1.45-3.8h0.325v-1.3h-1.4v1.3h0.325l-1.45 3.8c-0.775 0.475-1.3 1.35-1.3 2.325v16.025c0 1.5 1.225 2.725 2.725 2.725h0.8c1.5 0 2.725-1.225 2.725-2.725v-16.025c0.025-0.975-0.5-1.85-1.3-2.325zM25.975 4.825l1-2.65v2.525h-0.175c-0.275 0-0.575 0.050-0.825 0.125zM27.425 4.7v-2.525l1 2.65c-0.275-0.075-0.55-0.125-0.825-0.125h-0.175z"></path>
<path d="M13.55 5.75c0 1.284-1.041 2.325-2.325 2.325s-2.325-1.041-2.325-2.325c0-1.284 1.041-2.325 2.325-2.325s2.325 1.041 2.325 2.325z"></path>
<path d="M21.2 7.975c-0.6 0-1.15 0.25-1.525 0.625h-0.925v0.275l-4.025-0.025c-0.025 0-0.050-0.025-0.1-0.025l-5.15-0.075c0 0-0.725-0.15-2.025 0.675l-3.050 1.85c-0.225 0.175-0.375 0.4-0.425 0.7l-0.65 3.675-0.275-0.025-0.125 0.95c-0.425 0.325-0.725 0.825-0.8 1.425-0.125 1.125 0.6 2.125 1.625 2.25s1.975-0.675 2.125-1.8c0.075-0.6-0.1-1.2-0.45-1.6l0.1-0.9-0.2-0.025 0.55-3.15 1.95-1.15-1.6 12.85-3.525 5c-0.475 0.675-0.325 1.575 0.35 2.025 0.675 0.475 1.575 0.325 2.025-0.35l3.7-5.325c0.125-0.175 0.2-0.375 0.225-0.575l0.75-4.275 2.55 3.65 0.075 5.875c0 0 0 0.025 0 0.025 0 0.775 0.65 1.425 1.425 1.425s1.425-0.625 1.425-1.425c0-0.050-0.125-6.7-0.125-6.7-0.025-0.2-0.125-0.4-0.225-0.575l-2.7-4.525 0.975-7.825c1.825 0.025 4.575 0.025 5.6 0.050v0.225h0.925c0.375 0.4 0.925 0.625 1.525 0.625 1.125 0 2.050-0.85 2.050-1.9s-0.925-1.925-2.050-1.925z"></path>
</symbol>
<symbol id="icon-camping" viewBox="0 0 32 32">
<path d="M0.8 11.2h3.2v6.659l-2.633 7.021c-0.061 0.164-0.038 0.347 0.061 0.491s0.263 0.229 0.438 0.229h17.6c0.18 0 0.348-0.091 0.446-0.242s0.115-0.341 0.042-0.506l-3.733-8.533c-0.005-0.011-0.013-0.019-0.019-0.029-0.008-0.016-0.013-0.034-0.023-0.049-0.007-0.011-0.017-0.019-0.025-0.030-0.011-0.014-0.022-0.028-0.034-0.041-0.006-0.006-0.011-0.013-0.018-0.019-0.016-0.016-0.034-0.028-0.052-0.042-0.014-0.011-0.028-0.022-0.044-0.031-0.017-0.010-0.034-0.019-0.051-0.027-0.012-0.006-0.025-0.010-0.037-0.015-0.014-0.005-0.027-0.012-0.042-0.016-0.046-0.013-0.094-0.021-0.144-0.021h-10.667v-4.8h3.2c0.182 0 0.352-0.093 0.45-0.247s0.11-0.347 0.033-0.512l-3.733-8c-0.087-0.188-0.276-0.308-0.483-0.308s-0.396 0.12-0.483 0.308l-3.733 8c-0.077 0.165-0.065 0.358 0.033 0.512s0.268 0.247 0.45 0.247zM16.267 19.083l2.385 5.45h-2.385v-5.45zM15.2 19.083v5.45h-2.385l2.385-5.45z"></path>
<path d="M29.6 20.499c0-1.53-0.452-2.226-0.503-2.3-0.132-0.192-0.375-0.275-0.597-0.205s-0.374 0.276-0.374 0.509c0 0.355-0.183 0.732-0.407 1.057-0.146-0.491-0.325-0.837-0.337-0.861-0.114-0.217-0.361-0.317-0.601-0.259-0.238 0.059-0.407 0.284-0.407 0.53-0.020 0.034-0.107 0.074-0.219 0.103-0.028-0.285 0.040-0.779 0.181-1.203 0.057-0.172 0.023-0.361-0.090-0.502s-0.293-0.216-0.471-0.197c-1.467 0.153-2.574 1.255-2.574 2.564v0.267c0 0.65 0.178 1.262 0.482 1.789l-1.079 1.079c-0.302 0.302-0.469 0.705-0.469 1.132s0.166 0.829 0.469 1.131c0.312 0.312 0.721 0.468 1.131 0.468s0.819-0.156 1.131-0.468l1.665-1.665c0.089 0 0.175-0.005 0.262-0.012l1.677 1.677c0.312 0.312 0.721 0.468 1.131 0.468s0.819-0.156 1.131-0.468c0.302-0.302 0.469-0.705 0.469-1.132s-0.167-0.829-0.469-1.131l-1.324-1.324c0.123-0.324 0.193-0.675 0.193-1.045zM24.11 24.377c-0.209 0.208-0.546 0.208-0.754 0-0.101-0.101-0.156-0.235-0.156-0.377s0.055-0.276 0.156-0.377l0.995-0.995c0.205 0.185 0.438 0.333 0.683 0.462 0.079 0.042 0.156 0.091 0.238 0.125l-1.162 1.162zM29.977 23.623c0.101 0.101 0.156 0.235 0.156 0.377s-0.055 0.276-0.156 0.377c-0.209 0.208-0.546 0.208-0.754 0l-1.251-1.25c0.327-0.165 0.617-0.387 0.859-0.65l1.146 1.146z"></path>
<path d="M23.733 11.2c2.353 0 4.267-1.914 4.267-4.267s-1.914-4.267-4.267-4.267-4.267 1.914-4.267 4.267c0 2.353 1.914 4.267 4.267 4.267z"></path>
<path d="M23.733 2.133c0.295 0 0.533-0.239 0.533-0.533v-1.067c0-0.294-0.238-0.533-0.533-0.533s-0.533 0.239-0.533 0.533v1.067c0 0.294 0.238 0.533 0.533 0.533z"></path>
<path d="M24.267 13.333v-1.067c0-0.294-0.238-0.533-0.533-0.533s-0.533 0.239-0.533 0.533v1.067c0 0.294 0.238 0.533 0.533 0.533s0.533-0.239 0.533-0.533z"></path>
<path d="M28.533 6.933c0 0.294 0.238 0.533 0.533 0.533h1.067c0.295 0 0.533-0.239 0.533-0.533s-0.238-0.533-0.533-0.533h-1.067c-0.295 0-0.533 0.239-0.533 0.533z"></path>
<path d="M17.333 7.467h1.067c0.295 0 0.533-0.239 0.533-0.533s-0.238-0.533-0.533-0.533h-1.067c-0.295 0-0.533 0.239-0.533 0.533s0.238 0.533 0.533 0.533z"></path>
<path d="M19.585 3.539c0.104 0.104 0.241 0.156 0.377 0.156s0.273-0.052 0.377-0.156c0.209-0.209 0.209-0.546 0-0.754l-0.754-0.754c-0.209-0.209-0.546-0.209-0.754 0s-0.209 0.546 0 0.754l0.754 0.754z"></path>
<path d="M28.259 11.992c0.137 0 0.273-0.052 0.377-0.156 0.209-0.209 0.209-0.546 0-0.754l-0.754-0.754c-0.209-0.209-0.546-0.209-0.754 0s-0.209 0.546 0 0.754l0.754 0.754c0.104 0.104 0.241 0.156 0.377 0.156z"></path>
<path d="M27.505 3.695c0.137 0 0.273-0.052 0.377-0.156l0.754-0.754c0.209-0.209 0.209-0.546 0-0.754s-0.546-0.209-0.754 0l-0.754 0.754c-0.209 0.208-0.209 0.546 0 0.754 0.104 0.104 0.241 0.156 0.377 0.156z"></path>
<path d="M19.585 10.328l-0.754 0.754c-0.209 0.209-0.209 0.546 0 0.754 0.104 0.104 0.241 0.156 0.377 0.156s0.273-0.052 0.377-0.156l0.754-0.754c0.209-0.209 0.209-0.546 0-0.754s-0.546-0.209-0.754 0z"></path>
<path d="M2.933 30.933h-2.133c-0.295 0-0.533 0.239-0.533 0.533s0.238 0.533 0.533 0.533h2.133c0.295 0 0.533-0.239 0.533-0.533s-0.238-0.533-0.533-0.533z"></path>
<path d="M5.6 28.8h-2.133c-0.295 0-0.533 0.239-0.533 0.533s0.238 0.533 0.533 0.533h2.133c0.295 0 0.533-0.239 0.533-0.533s-0.238-0.533-0.533-0.533z"></path>
<path d="M8.8 30.933h-2.133c-0.295 0-0.533 0.239-0.533 0.533s0.238 0.533 0.533 0.533h2.133c0.295 0 0.533-0.239 0.533-0.533s-0.238-0.533-0.533-0.533z"></path>
<path d="M12 28.8h-2.133c-0.295 0-0.533 0.239-0.533 0.533s0.238 0.533 0.533 0.533h2.133c0.295 0 0.533-0.239 0.533-0.533s-0.238-0.533-0.533-0.533z"></path>
<path d="M15.2 30.933h-2.133c-0.295 0-0.533 0.239-0.533 0.533s0.238 0.533 0.533 0.533h2.133c0.295 0 0.533-0.239 0.533-0.533s-0.238-0.533-0.533-0.533z"></path>
<path d="M18.4 28.8h-2.133c-0.295 0-0.533 0.239-0.533 0.533s0.238 0.533 0.533 0.533h2.133c0.295 0 0.533-0.239 0.533-0.533s-0.238-0.533-0.533-0.533z"></path>
<path d="M13.067 26.667c-0.295 0-0.533 0.239-0.533 0.533s0.238 0.533 0.533 0.533h2.133c0.295 0 0.533-0.239 0.533-0.533s-0.238-0.533-0.533-0.533h-2.133z"></path>
<path d="M6.667 26.667c-0.295 0-0.533 0.239-0.533 0.533s0.238 0.533 0.533 0.533h2.133c0.295 0 0.533-0.239 0.533-0.533s-0.238-0.533-0.533-0.533h-2.133z"></path>
<path d="M0.8 27.733h2.133c0.295 0 0.533-0.239 0.533-0.533s-0.238-0.533-0.533-0.533h-2.133c-0.295 0-0.533 0.239-0.533 0.533s0.238 0.533 0.533 0.533z"></path>
<path d="M18.933 27.2c0 0.294 0.238 0.533 0.533 0.533h2.133c0.295 0 0.533-0.239 0.533-0.533s-0.238-0.533-0.533-0.533h-2.133c-0.295 0-0.533 0.239-0.533 0.533z"></path>
<path d="M21.6 30.933h-2.133c-0.295 0-0.533 0.239-0.533 0.533s0.238 0.533 0.533 0.533h2.133c0.295 0 0.533-0.239 0.533-0.533s-0.238-0.533-0.533-0.533z"></path>
<path d="M24.8 28.8h-2.133c-0.295 0-0.533 0.239-0.533 0.533s0.238 0.533 0.533 0.533h2.133c0.295 0 0.533-0.239 0.533-0.533s-0.238-0.533-0.533-0.533z"></path>
<path d="M28 26.667h-2.133c-0.295 0-0.533 0.239-0.533 0.533s0.238 0.533 0.533 0.533h2.133c0.295 0 0.533-0.239 0.533-0.533s-0.238-0.533-0.533-0.533z"></path>
<path d="M28 30.933h-2.133c-0.295 0-0.533 0.239-0.533 0.533s0.238 0.533 0.533 0.533h2.133c0.295 0 0.533-0.239 0.533-0.533s-0.238-0.533-0.533-0.533z"></path>
<path d="M31.2 28.8h-2.133c-0.295 0-0.533 0.239-0.533 0.533s0.238 0.533 0.533 0.533h2.133c0.295 0 0.533-0.239 0.533-0.533s-0.238-0.533-0.533-0.533z"></path>
</symbol>
<symbol id="icon-cooking" viewBox="0 0 32 32">
<path d="M12.38 11.46c1.029 0.076 1.006 0.074 2.731 0.201l3.039-0.963 2.695 3.602h-1.89c-0.011 0.359-0.097 0.702-0.254 1.019h1.957c0.301 0.792 1.066 1.355 1.963 1.355h4c1.16 0 2.1-0.94 2.1-2.1 0-0.151-0.122-0.273-0.273-0.273l-6.238-0.001-3.051-4.077c0.356-0.349 0.508-0.88 0.347-1.388-0.228-0.719-0.996-1.118-1.715-0.89l-0.271 0.086-0.356-0.475c-0.181-0.242-0.523-0.291-0.765-0.11s-0.291 0.523-0.11 0.765l0.127 0.17-2.2 0.697-2.753-1.543c-0.32-0.609-0.958-1.025-1.694-1.025h-3.411c-1.056 0-1.913 0.856-1.913 1.913v4.449h3.24c0-1.136 0-1.201 0-1.959l-0.169-0.581 2.346 4.167c0.219 0.389 0.623 0.658 1.090 0.692l5.444 0.402c0.756 0.056 1.408-0.515 1.463-1.262 0.054-0.732-0.494-1.406-1.262-1.463l-4.713-0.348-2.125-3.773c2.106 2.18 1.908 1.976 2.621 2.714z"></path>
<path d="M25.871 9.462c-0.013 0.086 0.019 0.172 0.078 0.211s0.131 0.021 0.175-0.044c0.338-0.489 0.685-1.186 0.51-1.82-0.266-0.959-0.528-1.384-0.408-2.108 0.008-0.047-0.010-0.095-0.043-0.116s-0.072-0.009-0.096 0.029c-0.224 0.363-0.513 1.007-0.431 1.829 0.092 0.935 0.303 1.416 0.214 2.020z"></path>
<path d="M23.902 12.994c-0.013 0.086 0.019 0.172 0.078 0.211s0.131 0.021 0.175-0.044c0.338-0.489 0.685-1.186 0.51-1.82-0.266-0.959-0.528-1.384-0.408-2.108 0.008-0.047-0.010-0.095-0.043-0.116s-0.072-0.009-0.096 0.028c-0.224 0.363-0.513 1.007-0.431 1.829 0.092 0.935 0.303 1.416 0.214 2.020z"></path>
<path d="M29.523 17.804h-9.733c-0.604 0-1.093 0.489-1.093 1.093s0.489 1.093 1.093 1.093v11.444c0 0.231 0.187 0.418 0.418 0.418h8.897c0.231 0 0.418-0.187 0.418-0.418v-11.444c0.604 0 1.093-0.489 1.093-1.093s-0.489-1.093-1.093-1.093z"></path>
<path d="M13.105 21.879h-3.493l0.367 1.002-1.512 7.14c-0.188 0.886 0.378 1.756 1.264 1.944s1.756-0.379 1.944-1.264l1.61-7.602c0.111-0.523-0.051-0.867-0.18-1.219z"></path>
<path d="M4.444 16.185c0 2.561 0.041 1.058-0.204 6.92l-2.732 6.63c-0.345 0.837 0.054 1.796 0.891 2.141s1.796-0.054 2.141-0.891l2.842-6.898c0.073-0.177 0.114-0.365 0.122-0.556 0.216-5.153 0.18-3.605 0.18-7.346h-3.24z"></path>
<path d="M10.909 2.832c0 1.564-1.268 2.832-2.832 2.832s-2.832-1.268-2.832-2.832c0-1.564 1.268-2.832 2.832-2.832s2.832 1.268 2.832 2.832z"></path>
<path d="M12.588 16.407l-1.716-0.127c-1.172-0.087-1.911-0.966-2.059-1.478l-0.28-0.964h-4.088v1.38h4.206v5.21c0 0.267 0.216 0.483 0.483 0.483h4.264c0.155 0 0.3-0.074 0.391-0.2s0.116-0.287 0.068-0.434l-1.269-3.871z"></path>
</symbol>
<symbol id="icon-fishing" viewBox="0 0 32 32">
<path d="M16.35 4.6c1.15 0 2.075-0.925 2.075-2.075s-0.925-2.075-2.075-2.075c-1.15 0-2.075 0.95-2.075 2.075-0.025 1.15 0.9 2.075 2.075 2.075z"></path>
<path d="M29.425 28.525c-0.575-0.275-1.225-0.425-1.9-0.425s-1.325 0.15-1.9 0.425c-0.55 0.25-1.175 0.4-1.85 0.4-0.65 0-1.275-0.15-1.85-0.4-0.575-0.275-1.225-0.425-1.9-0.425s-1.325 0.15-1.9 0.425c-0.575 0.25-1.2 0.4-1.85 0.4s-1.275-0.15-1.85-0.4c-0.575-0.275-1.225-0.425-1.9-0.425s-1.325 0.15-1.9 0.425c-0.55 0.25-1.175 0.4-1.825 0.4s-1.3-0.15-1.85-0.4c-0.575-0.275-1.225-0.425-1.9-0.425s-1.325 0.15-1.9 0.425c-0.575 0.25-1.2 0.4-1.85 0.4v2.75c0.65 0 1.275-0.15 1.85-0.4 0.575-0.275 1.225-0.425 1.9-0.425s1.325 0.15 1.9 0.425c0.55 0.25 1.2 0.4 1.85 0.4s1.275-0.15 1.825-0.4c0.575-0.275 1.225-0.425 1.9-0.425s1.325 0.15 1.9 0.425c0.575 0.25 1.2 0.4 1.85 0.4s1.275-0.15 1.85-0.4c0.575-0.275 1.225-0.425 1.9-0.425s1.325 0.15 1.9 0.425c0.55 0.25 1.2 0.4 1.85 0.4s1.275-0.15 1.85-0.4c0.575-0.275 1.225-0.425 1.9-0.425s1.325 0.15 1.9 0.425c0.575 0.25 1.2 0.4 1.85 0.4v-2.75c-0.675 0-1.3-0.15-1.85-0.4z"></path>
<path d="M29.475 0.35c-0.15-0.050-0.325-0.025-0.425 0.1l-7.625 7.6c-0.125-0.050-0.25-0.075-0.4-0.075h-2.85c-0.5-0.5-3.1-3.1-3.1-3.1-0.125-0.125-0.3-0.2-0.475-0.25-0.6-0.525-1.5-0.525-2.075 0.050l-4.5 4.5c-0.175 0.175-0.275 0.4-0.275 0.675v3.3h-6.35v1.050h6.35v7.375c0 0.925 0.75 1.675 1.675 1.675s1.7-0.75 1.7-1.675v-7.4h5.1v9.775h-14.825v1.8h15.85v-11.575h1.825v-1.050h-7.975v-0.95l4.2-4.175 1.725 1.7c0.175 0.2 0.45 0.3 0.725 0.3h3.3c0.575 0 1.025-0.45 1.025-1.025 0-0.125-0.025-0.275-0.075-0.375l6.925-6.925v24.125h0.8v-25.075c-0.025-0.175-0.1-0.3-0.25-0.375z"></path>
</symbol>
<symbol id="icon-photograph" viewBox="0 0 32 32">
<path d="M18.499 18.173l-0.499-0.215-2.847 8.219c1.066 2.974 1.093 2.965 1.139 3.445l3.906-11.278c-0.551 0.116-1.143 0.069-1.699-0.171z"></path>
<path d="M31.939 30.060l-7.501-21.656h0.031c0.23 0 0.417-0.187 0.417-0.417v-1.221h1.58c0.23 0 0.417-0.187 0.417-0.417v-2.033c0-0.231-0.187-0.417-0.417-0.417h-1.58v-1.221c0-0.231-0.187-0.417-0.417-0.417h-0.96v-1.127c0-0.325-0.263-0.588-0.588-0.588s-0.588 0.263-0.588 0.588v1.127h-0.96c-0.23 0-0.417 0.187-0.417 0.417v5.31c0 0.209 0.153 0.381 0.353 0.412l-1.455 4.2 0.883 0.381c1.426 0.615 2.098 2.276 1.476 3.717-0.115 0.266-0.265 0.505-0.444 0.714v7.875c0 0.609 0.493 1.102 1.102 1.102s1.102-0.493 1.102-1.102v-11.485l5.881 16.98c0.199 0.575 0.827 0.88 1.402 0.68s0.88-0.827 0.68-1.402z"></path>
<path d="M16.471 3.579c0 1.73-1.402 3.132-3.132 3.132s-3.132-1.402-3.132-3.132c0-1.73 1.402-3.132 3.132-3.132s3.132 1.402 3.132 3.132z"></path>
<path d="M20.181 14.273l-5.189-2.239-4.669-3.919 2.736 1.418c-0.033-0.648-0.364-1.273-0.947-1.659l-3.148-2.079c-0.975-0.644-2.287-0.375-2.931 0.6-0.193 0.293-4.653 6.563-5.911 9.051-0.193 0.382-0.148 0.884 0.070 1.291l2.921 5.452-1.732 7.328c-0.245 1.038 0.543 2.034 1.61 2.033 0.749-0 1.427-0.512 1.607-1.273l1.876-7.937c0.094-0.399 0.030-0.822-0.152-1.161l-1.316-2.457c0.673 0.444 0.025-0.106 3.785 3.306l3.020 8.426c0.308 0.859 1.254 1.306 2.113 0.998s1.306-1.254 0.998-2.113l-3.159-8.815c-0.091-0.255-0.244-0.484-0.445-0.666l-2.866-2.601c0.295-0.447 2.194-3.324 2.491-3.774l-2.444-3.197 4.828 4.052c0.106 0.089 0.223 0.161 0.35 0.216l5.38 2.321c0.72 0.311 1.555-0.022 1.865-0.741s-0.021-1.554-0.741-1.865z"></path>
</symbol>
<symbol id="icon-user" viewBox="0 0 32 32">
<path d="M22.459 23.789c-0.589-0.31-2.040-1.132-2.666-1.722v-1.603c2.007-1.147 3.378-3.204 3.815-5.721 1.135-0.326 2.123-1.391 2.123-2.371 0-0.993-0.746-1.651-1.979-1.788v-7.149l-0.003-0.029c-0.016-0.139-0.485-3.406-7.749-3.406s-7.733 3.267-7.749 3.406l-0.003 0.029v7.149c-1.233 0.136-1.979 0.795-1.979 1.788 0 0.98 0.988 2.046 2.123 2.371 0.437 2.517 1.808 4.574 3.815 5.721v1.603c-0.626 0.59-2.078 1.413-2.667 1.723-6.432 2.087-6.568 5.896-6.57 6.058l-0 2.152h26.062v-2.147c-0.001-0.163-0.096-3.996-6.572-6.064zM23.753 11.578c0.882 0.124 0.99 0.58 0.99 0.793 0 0.405-0.438 0.955-1.009 1.259 0.012-0.204 0.019-2.052 0.019-2.052zM7.258 12.371c0-0.213 0.108-0.669 0.99-0.793 0 0 0.007 1.848 0.019 2.052-0.571-0.304-1.009-0.854-1.009-1.259zM9.237 3.508c0.027-0.119 0.185-0.655 0.938-1.207 0.817-0.598 2.49-1.312 5.825-1.312s5.008 0.713 5.825 1.312c0.753 0.552 0.911 1.088 0.938 1.207v4.703c-0.424-0.066-0.749-0.224-0.968-0.471-0.44-0.497-0.356-1.237-0.355-1.241l0.075-0.561h-11.028l0.075 0.561c0.001 0.007 0.085 0.738-0.351 1.236-0.219 0.251-0.546 0.41-0.973 0.477v-4.703zM9.237 9.21c0.735-0.083 1.312-0.359 1.718-0.824 0.417-0.476 0.551-1.046 0.589-1.458h8.911c0.038 0.413 0.172 0.982 0.589 1.458 0.407 0.465 0.983 0.741 1.718 0.824v1.676h-0.99v-0.99h-4.949v1.23c-0.265-0.134-0.558-0.24-0.825-0.24s-0.56 0.106-0.825 0.24v-1.23h-4.948v0.99h-0.99v-1.676zM20.784 10.887v1.155c0 0.455-0.37 0.825-0.825 0.825h-1.32c-0.455 0-0.825-0.37-0.825-0.825v-1.155h2.969zM14.186 10.887v1.155c0 0.455-0.37 0.825-0.825 0.825h-1.32c-0.455 0-0.825-0.37-0.825-0.825v-1.155h2.969zM9.323 14.303l-0.004-0.033c-0.055-0.441-0.082-0.846-0.082-1.238v-1.155h0.99v0.165c0 1.001 0.814 1.814 1.814 1.814h1.32c0.913 0 1.67-0.678 1.796-1.556 0.303-0.219 0.676-0.423 0.843-0.423 0.166 0 0.54 0.205 0.843 0.424 0.126 0.878 0.883 1.556 1.796 1.556h1.32c1 0 1.814-0.814 1.814-1.814v-0.165h0.99v1.155c0 0.392-0.027 0.797-0.082 1.238l-0.002 0.024c-0.345 2.449-1.658 4.43-3.607 5.437l-0.068 0.035-0.004 0.004c-0.907 0.454-1.916 0.684-2.999 0.684s-2.091-0.23-2.999-0.684l-0.072-0.040c-1.946-1.006-3.258-2.983-3.605-5.428zM13.070 22.598l0.126-0.141v-1.521c0.872 0.336 1.812 0.507 2.804 0.507s1.933-0.171 2.804-0.507v1.521l0.126 0.141c0.571 0.639 1.913 1.431 2.641 1.835-0.187 0.254-0.49 0.601-0.941 0.946-1.152 0.878-2.753 1.343-4.63 1.343s-3.478-0.464-4.63-1.343c-0.452-0.344-0.755-0.692-0.941-0.946 0.728-0.404 2.070-1.196 2.641-1.835zM28.041 31.010v0h-24.082v-1.146c0.003-0.058 0.060-0.854 0.764-1.848 1.149-1.623 3.166-2.608 4.784-3.172 0.576 0.871 2.348 2.867 6.493 2.867 4.148 0 5.919-1.998 6.494-2.868 1.628 0.558 3.655 1.538 4.797 3.164 0.707 1.006 0.748 1.812 0.75 1.854v1.149z"></path>
<path d="M16 15.505h1.32v-0.99h-0.825v-1.155h-0.99v1.649c0 0.273 0.222 0.495 0.495 0.495z"></path>
</symbol>
<symbol id="icon-work-bag" viewBox="0 0 38 32">
<path d="M37.5 18c-0.276 0-0.5 0.224-0.5 0.5v12c0 0.276-0.224 0.5-0.5 0.5h-35c-0.276 0-0.5-0.224-0.5-0.5v-12c0-0.276-0.224-0.5-0.5-0.5s-0.5 0.224-0.5 0.5v12c0 0.827 0.673 1.5 1.5 1.5h35c0.827 0 1.5-0.673 1.5-1.5v-12c0-0.276-0.224-0.5-0.5-0.5zM25.5 5c0.276 0 0.5-0.224 0.5-0.5v-3c0-0.827-0.673-1.5-1.5-1.5h-11c-0.827 0-1.5 0.673-1.5 1.5v3c0 0.276 0.224 0.5 0.5 0.5s0.5-0.224 0.5-0.5v-3c0-0.276 0.224-0.5 0.5-0.5h11c0.276 0 0.5 0.224 0.5 0.5v3c0 0.276 0.224 0.5 0.5 0.5zM36.5 7h-35c-0.827 0-1.5 0.673-1.5 1.5v4.958c0 2.778 9.456 6.5 19.125 6.5 9.543 0 18.875-3.722 18.875-6.5v-4.958c0-0.827-0.673-1.5-1.5-1.5zM37 13.458c0 1.764-8.457 5.5-17.875 5.5-9.55 0-18.125-3.735-18.125-5.5v-4.958c0-0.276 0.224-0.5 0.5-0.5h35c0.276 0 0.5 0.224 0.5 0.5v4.958zM19.125 23c0.943 0 1.923-0.039 2.914-0.116 0.275-0.021 0.481-0.262 0.459-0.538-0.021-0.275-0.252-0.486-0.538-0.459-2.014 0.157-3.909 0.15-5.919-0.020-0.264-0.027-0.517 0.181-0.54 0.456s0.181 0.517 0.456 0.54c1.076 0.091 2.142 0.137 3.168 0.137z"></path>
</symbol>
<symbol id="icon-education" viewBox="0 0 32 32">
<path d="M29.36 31h-0.72c0-3.696-1.827-7.151-4.727-9.447l-3.252 5.627c-0.1 0.175-0.319 0.232-0.491 0.132l-4.17-2.406-4.17 2.405c-0.172 0.102-0.393 0.041-0.491-0.132l-3.25-5.624c-2.901 2.296-4.729 5.75-4.729 9.445h-0.72c0-5.585 3.931-10.647 9.47-12.365-2.244-1.353-3.65-3.796-3.65-6.455 0-1.063 0.216-2.086 0.643-3.044l-3.743-2.162v8.026h-0.72v-8.65c0-0.004 0-0.008 0-0.013 0.005-0.133 0.083-0.253 0.203-0.311l11-5.35c0.099-0.049 0.216-0.049 0.314 0l11 5.35c0.12 0.058 0.198 0.178 0.202 0.311s-0.064 0.258-0.18 0.324l-4.283 2.475c0.427 0.958 0.644 1.98 0.644 3.044 0 2.657-1.403 5.1-3.643 6.455 5.536 1.718 9.463 6.781 9.463 12.365zM8.668 21.121l3.113 5.388 4.039-2.33c0.111-0.064 0.248-0.064 0.359 0l4.038 2.33 3.115-5.39c-1.325-0.935-2.845-1.636-4.496-2.028-0.15-0.036-0.261-0.163-0.275-0.317-0.015-0.153 0.070-0.299 0.212-0.362 2.458-1.097 4.046-3.542 4.046-6.231 0-0.992-0.207-1.943-0.616-2.832-1.328-0.004-8.376-0.002-12.407 0.001-0.409 0.889-0.617 1.839-0.617 2.83 0 2.69 1.592 5.136 4.056 6.231 0.141 0.062 0.227 0.209 0.212 0.362-0.014 0.154-0.125 0.281-0.275 0.317-1.654 0.393-3.176 1.096-4.504 2.031zM15.883 8.628c3.812 0 5.458 0.006 6.186 0.027v-1.394l-0.271-0.152c-1.38-0.779-3.097-1.749-5.768-1.749-2.711 0-4.465 0.985-5.875 1.776l-0.225 0.125v1.369c2.416-0.001 4.372-0.002 5.953-0.002zM16.030 4.64c2.86 0 4.669 1.021 6.123 1.842l0.451 0.252c0.115 0.063 0.187 0.184 0.187 0.315v1.317l3.443-1.989-10.234-4.977-10.233 4.977 3.443 1.99v-1.317c0-0.131 0.071-0.252 0.187-0.315l0.406-0.227c1.482-0.832 3.327-1.868 6.227-1.868z"></path>
</symbol>
<symbol id="icon-project" viewBox="0 0 32 32">
<path d="M18.189 7.916c0 0.279 0.226 0.505 0.505 0.505s0.505-0.226 0.505-0.505c0-0.093 0.076-0.168 0.168-0.168h2.695c0.093 0 0.168 0.075 0.168 0.168v2.695c0 0.093-0.076 0.168-0.168 0.168h-2.695c-0.093 0-0.168-0.075-0.168-0.168v-0.674c0-0.279-0.226-0.505-0.505-0.505s-0.505 0.226-0.505 0.505v0.674c0 0.65 0.529 1.179 1.179 1.179h2.695c0.65 0 1.179-0.529 1.179-1.179v-2.695c0-0.65-0.529-1.179-1.179-1.179h-2.695c-0.65-0-1.179 0.529-1.179 1.179z"></path>
<path d="M6.568 9.095c1.764 0 3.2-1.436 3.2-3.2s-1.436-3.2-3.2-3.2-3.2 1.436-3.2 3.2 1.436 3.2 3.2 3.2zM6.568 3.705c1.207 0 2.19 0.982 2.19 2.19s-0.982 2.19-2.189 2.19c-1.207 0-2.189-0.982-2.189-2.189s0.982-2.189 2.189-2.189z"></path>
<path d="M26.779 7.074h2.021c0.65 0 1.179-0.529 1.179-1.179v-2.021c0-0.65-0.529-1.179-1.179-1.179h-2.021c-0.65 0-1.179 0.529-1.179 1.179v2.021c0 0.65 0.529 1.179 1.179 1.179zM26.61 3.874c0-0.093 0.076-0.168 0.168-0.168h2.021c0.093 0 0.168 0.075 0.168 0.168v2.021c0 0.093-0.076 0.168-0.168 0.168h-2.021c-0.093 0-0.168-0.075-0.168-0.168v-2.021z"></path>
<path d="M16.674 3.705h1.347c0.65 0 1.179-0.529 1.179-1.179v-1.347c0-0.65-0.529-1.179-1.179-1.179h-1.347c-0.65 0-1.179 0.529-1.179 1.179v1.347c0 0.65 0.529 1.179 1.179 1.179zM16.505 1.179c0-0.093 0.076-0.168 0.168-0.168h1.347c0.093 0 0.168 0.075 0.168 0.168v1.347c0 0.093-0.076 0.168-0.168 0.168h-1.347c-0.093 0-0.168-0.075-0.168-0.168v-1.347z"></path>
<path d="M31.495 22.232h-1.516v-6.905c0-1.021-0.831-1.853-1.853-1.853h-15.495c-1.022 0-1.853 0.831-1.853 1.853v6.905h-1.619c-0.214-0.223-0.476-0.402-0.772-0.52-0.165-0.854-0.918-1.501-1.819-1.501h-2.863v-4.21c0-0.279-0.226-0.505-0.505-0.505s-0.505 0.226-0.505 0.505v4.716c0 0.279 0.226 0.505 0.505 0.505h3.368c0.464 0 0.842 0.378 0.842 0.842s-0.378 0.842-0.842 0.842h-4.716c-0.464 0-0.842-0.378-0.842-0.842v-7.411c0-1.95 1.587-3.537 3.537-3.537h4.042c1.042 0 2.026 0.457 2.7 1.252 0.18 0.213 0.499 0.239 0.712 0.059s0.239-0.499 0.059-0.712c-0.867-1.023-2.132-1.61-3.471-1.61h-4.042c-2.507-0-4.547 2.040-4.547 4.547v7.41c0 1.021 0.831 1.853 1.853 1.853h2.196c0.086 1.129 1.032 2.021 2.183 2.021h1.347c1.207 0 2.189-0.982 2.189-2.189 0-0.173-0.020-0.342-0.059-0.505h1.069v4.21c0 1.021 0.831 1.853 1.853 1.853h4.625l-0.060 1.684h-2.207c-0.279 0-0.505 0.226-0.505 0.505s0.226 0.505 0.505 0.505h2.692c0.002 0 0.004 0 0.005 0h5.384c0.001 0 0.002 0 0.003 0s0.002 0 0.003 0h2.692c0.279 0 0.505-0.226 0.505-0.505s-0.226-0.505-0.505-0.505h-2.207l-0.060-1.684h4.625c1.021 0 1.853-0.831 1.853-1.853v-4.21h1.516c0.279 0 0.505-0.226 0.505-0.505s-0.226-0.505-0.505-0.505zM7.579 24.926h-1.347c-0.593 0-1.085-0.44-1.167-1.011h1.504c0.763 0 1.419-0.463 1.703-1.123 0.299 0.217 0.486 0.568 0.486 0.955 0 0.65-0.529 1.179-1.179 1.179zM28.968 27.453c0 0.464-0.378 0.842-0.842 0.842h-4.661l-0.177-4.95c-0.036-1.002-0.849-1.787-1.851-1.787-0.279 0-0.505 0.226-0.505 0.505s0.226 0.505 0.505 0.505c0.456 0 0.825 0.357 0.842 0.812l0.272 7.609h-4.342l0.272-7.609c0.016-0.455 0.386-0.812 0.842-0.812 0.279 0 0.505-0.226 0.505-0.505s-0.226-0.505-0.505-0.505c-1.003 0-1.816 0.785-1.851 1.787l-0.177 4.95h-4.661c-0.464 0-0.842-0.378-0.842-0.842v-12.126c0-0.464 0.378-0.842 0.842-0.842h15.495c0.464 0 0.842 0.378 0.842 0.842v12.126z"></path>
</symbol>
<symbol id="icon-printer" viewBox="0 0 32 32">
<path d="M25 27v1c0 1.112-0.894 2-1.997 2h-15.005c-1.107 0-1.997-0.895-1.997-2v-1h-2.006c-1.654 0-2.994-1.343-2.994-2.999v-9.001c0-1.655 1.341-2.999 2.994-2.999h2.006v-7c0-1.112 0.894-2 1.997-2h15.005c1.107 0 1.997 0.895 1.997 2v7h2.006c1.654 0 2.994 1.343 2.994 2.999v9.001c0 1.655-1.341 2.999-2.994 2.999h-2.006zM6 26v-6h19v6h1.993c1.109 0 2.007-0.894 2.007-2.003v-8.994c0-1.106-0.898-2.003-2.007-2.003h-22.985c-1.109 0-2.007 0.894-2.007 2.003v8.994c0 1.106 0.898 2.003 2.007 2.003h1.993zM8 4c-0.552 0-1 0.453-1 0.997v7.003h17v-7.003c0-0.551-0.455-0.997-1-0.997h-15zM7 21v7.003c0 0.551 0.455 0.997 1 0.997h15c0.552 0 1-0.453 1-0.997v-7.003h-17zM24 17c0.552 0 1-0.448 1-1s-0.448-1-1-1c-0.552 0-1 0.448-1 1s0.448 1 1 1v0z"></path>
</symbol>
</svg>
